<?xml version="1.0" encoding="utf-8"?>
<!-- Generator: Adobe Illustrator 30.6.0, SVG Export Plug-In . SVG Version: 9.03 Build 0)  -->
<svg version="1.1" baseProfile="basic" id="レイヤー_1"
	 xmlns="http://www.w3.org/2000/svg" xmlns:xlink="http://www.w3.org/1999/xlink" x="0px" y="0px" viewBox="0 0 407.7 419.1"
	 xml:space="preserve">
<g>
	<path fill="#F37A86" d="M303.5,418.6l-193.4,0.5C51.1,419.3,0,374.4,0,314.3l0-208.2C0,46.7,48.6,0.4,107.1,0.3L296.4,0
		c59.4-0.1,111.1,44.1,111.2,105.3l0.1,209.8C407.7,371.8,360.3,418.5,303.5,418.6z"/>
	<g>
		<circle fill="#F5EFE4" cx="343.9" cy="303.7" r="19.7"/>
		<circle fill="#F5EFE4" cx="305.6" cy="333.8" r="15.8"/>
		<circle fill="#F5EFE4" cx="264.3" cy="345.9" r="12"/>
		<circle fill="#F5EFE4" cx="226" cy="346.5" r="8.4"/>
		<circle fill="#F5EFE4" cx="193.5" cy="340" r="5.6"/>
		<g>
			<path fill="#F5EFE4" d="M172.1,183.5c-21.5-2.6-9.6,46-15.6,66.7c-2.4,8.4-9.3,13.6-17,13.4c-8.7-0.2-15.2-6.1-17-15.1
				c-4.4-22.2,7.2-66.3-13.3-66.3c-4.7,0-9.2,3.7-10.7,8.9c-7.3,25.4,5.2,52-1,68.1c-3.4,8.8-13.6,12.6-22.5,10.9
				c-8.1-1.6-14.7-8.3-16.6-17.9c-5.2-26.7-4.4-54.1,2.5-80.7c3.4-13,10.5-25.1,22.2-31.7c20.1-11.3,43.3-4.5,57.8,13.7
				c11.6-12.5,25-16.7,41.2-14.1c23.1,3.7,34.6,26.4,36.7,50.1c1.8,20.3,1.6,40.4-1.1,60.5c-1,7.5-5.6,13.6-10.9,15.8
				c-7.4,3.1-16.4,2.3-21.2-3.8c-5.3-6.8-4.8-15.6-4.2-23.9C183.1,217.5,187,185.4,172.1,183.5z"/>
			<path fill="#F5EFE4" d="M302.8,203.9c13.7,12.9,34.9,19.2,42.1,32.7c4.6,8.5,2.9,18.9-3.6,25.1c-6.7,6.3-16.9,7.2-25.4,2.5
				c-15-8.3-25.3-26.6-40.4-37.3c-6.2,8.7,2.1,23.6-3.4,37c-2.9,7.2-9.8,10.4-16.9,9.9c-14.2-1-19.2-14.6-19.6-30.4L233,127.5
				c-0.2-9.7,2.8-19.2,9.8-24.9c6.9-5.5,15.7-6.5,23-2.7c23.3,12,1.5,55.2,8,81.3c3.8-0.3,6-2.9,7.9-5.4l17.9-22.7
				c8.9-11.3,25.8-14.9,35.9-3.2c7.5,8.6,4.6,22.1-3,30.2C323.8,189.4,313.4,195.6,302.8,203.9z"/>
		</g>
	</g>
	<path fill="#F1999F" d="M293.3,18.7L183,18.7l-83.3,0.5c-39.2,5.5-70.5,30.4-82.3,67.6c-0.1,0.3-0.2,0.5-0.2,0.8
		c-3.7,12-5.6,23.6-5.5,36.8l0.8,184.5l11.3,7L23.1,123c0-11.9,2.1-22.8,5.9-33.3c12.1-33.8,41.1-55,77.2-59.8l189.8-0.2
		c28.4,0,53.5,12,71.1,34.7c0.8-3.7,3.3-6.1,8.1-7.5C355.4,31.4,325.4,18.7,293.3,18.7z"/>
</g>
</svg>
